<svg width="60" height="60" xmlns="http://www.w3.org/2000/svg">

 <g>
  <title>background</title>
  <rect fill="none" id="canvas_background" height="62" width="62" y="-1" x="-1"/>
 </g>
 <g>
  <title>Layer 1</title>
  <rect id="svg_1" width="60" rx="10" height="60" fill="none"/>
  <rect id="svg_2" y="14" x="8" width="44" rx="4" height="32" fill="none"/>
  <path id="svg_3" fill="#8d9cf4" d="m48.073153,47.5l-36,0a5.506,5.506 0 0 1 -5.5,-5.5l0,-24a5.506,5.506 0 0 1 5.5,-5.5l36,0a5.506,5.506 0 0 1 5.5,5.5l0,24a5.506,5.506 0 0 1 -5.5,5.5zm-36,-32a2.5,2.5 0 0 0 -2.5,2.5l0,24a2.5,2.5 0 0 0 2.5,2.5l36,0a2.5,2.5 0 0 0 2.5,-2.5l0,-24a2.5,2.5 0 0 0 -2.5,-2.5l-36,0z"/>
  <path id="svg_4" fill="none" d="m25.577,28.825a6,6 0 0 1 8.846,0l15.349,16.744a3.956,3.956 0 0 1 -1.772,0.431l-36,0a3.956,3.956 0 0 1 -1.772,-0.431l15.349,-16.744z"/>
  <path id="svg_5" fill="none" d="m48,47.5l-36,0a5.453,5.453 0 0 1 -2.439,-0.587a1.5,1.5 0 0 1 -0.438,-2.357l15.348,-16.744a7.5,7.5 0 0 1 11.058,0l15.348,16.744a1.5,1.5 0 0 1 -0.438,2.357a5.453,5.453 0 0 1 -2.439,0.587zm-34.756,-3l33.512,0l-13.439,-14.661a4.5,4.5 0 0 0 -6.634,0l0,0l-13.439,14.661zm-1.106,-1.014l0,0z"/>
  <path id="svg_6" fill="none" d="m25.577,31.175a6,6 0 0 0 8.846,0l15.349,-16.744a3.956,3.956 0 0 0 -1.772,-0.431l-36,0a3.956,3.956 0 0 0 -1.772,0.431l15.349,16.744z"/>
  <path id="svg_7" fill="#7bcdd1" d="m30,34.621a7.518,7.518 0 0 1 -5.529,-2.433l-15.348,-16.744a1.5,1.5 0 0 1 0.438,-2.357a5.453,5.453 0 0 1 2.439,-0.587l36,0a5.453,5.453 0 0 1 2.439,0.587a1.5,1.5 0 0 1 0.438,2.357l-15.348,16.744a7.518,7.518 0 0 1 -5.529,2.433zm-16.756,-19.121l13.439,14.661l0,0a4.5,4.5 0 0 0 6.634,0l13.439,-14.661l-33.512,0z"/>
  <path id="svg_9" d="m28.935455,25.571387" opacity="0.5" stroke-width="null" fill="none"/>
  <path id="svg_17" d="m25.456392,27.139721c30.13899,-2.487198 -1.609364,13.606437 -1.681704,13.606437c0.072341,0.000001 2.34008,-13.460131 2.340892,-13.460131c0.072341,0 5.997725,9.36357 5.997725,9.509876c0,0.146306 -2.340892,4.023409 -2.487198,4.023409c-0.146306,0 -3.80395,-4.901243 -3.876291,-4.901244c0.072341,0.000001 5.485654,-6.803218 5.413314,-6.803218c0.072341,0 6.217183,8.266277 5.997725,8.412583" opacity="0.5" fill-opacity="null" stroke-opacity="null" stroke-width="null" stroke="null" fill="none"/>
 </g>
</svg>