<svg width="60" height="60" xmlns="http://www.w3.org/2000/svg">

 <g>
  <title>background</title>
  <rect fill="none" id="canvas_background" height="62" width="62" y="-1" x="-1"/>
 </g>
 <g>
  <title>Layer 1</title>
  <rect id="svg_1" width="60" rx="10" height="60" fill="none"/>
  <rect id="svg_2" y="22.667" x="9.222" width="9.778" height="29.333" fill="none"/>
  <path id="svg_3" fill="#8d9cf4" d="m19,53.5l-9.778,0a1.5,1.5 0 0 1 -1.5,-1.5l0,-29.333a1.5,1.5 0 0 1 1.5,-1.5l9.778,0a1.5,1.5 0 0 1 1.5,1.5l0,29.333a1.5,1.5 0 0 1 -1.5,1.5zm-8.278,-3l6.778,0l0,-26.333l-6.778,0l0,26.333z"/>
  <path id="svg_4" fill="none" d="m52,33.667l0,18.333l-9.778,0l0,-17.111a4.882,4.882 0 0 0 -7.333,-4.229l0,21.34l-9.778,0l0,-29.333l9.778,0l0,1.87a10.839,10.839 0 0 1 6.111,-1.87a11,11 0 0 1 11,11z"/>
  <path id="svg_5" fill="#8d9cf4" d="m52,53.5l-9.778,0a1.5,1.5 0 0 1 -1.5,-1.5l0,-17.111a3.392,3.392 0 0 0 -3.389,-3.389a3.29,3.29 0 0 0 -0.944,0.136l0,20.364a1.5,1.5 0 0 1 -1.5,1.5l-9.778,0a1.5,1.5 0 0 1 -1.5,-1.5l0,-29.333a1.5,1.5 0 0 1 1.5,-1.5l9.778,0a1.5,1.5 0 0 1 1.387,0.929a12.389,12.389 0 0 1 4.724,-0.929a12.514,12.514 0 0 1 12.5,12.5l0,18.333a1.5,1.5 0 0 1 -1.5,1.5zm-8.278,-3l6.778,0l0,-16.833a9.511,9.511 0 0 0 -9.5,-9.5a9.354,9.354 0 0 0 -5.27,1.611a1.5,1.5 0 0 1 -2.341,-1.241l0,-0.37l-6.778,0l0,26.333l6.778,0l0,-19.84a1.5,1.5 0 0 1 0.751,-1.3a6.382,6.382 0 0 1 9.582,5.529l0,15.611z"/>
  <circle id="svg_6" r="6.111" fill="none" cy="14.111" cx="14.111"/>
  <path id="svg_7" fill="#8d9cf4" d="m14.111,21.722a7.611,7.611 0 1 1 7.611,-7.611a7.62,7.62 0 0 1 -7.611,7.611zm0,-12.222a4.611,4.611 0 1 0 4.611,4.611a4.617,4.617 0 0 0 -4.611,-4.611z"/>
  <path id="svg_8" fill="#7bcdd1" d="m8,15.611a1.5,1.5 0 0 1 -1.5,-1.5a7.621,7.621 0 0 1 7.611,-7.611a1.5,1.5 0 0 1 0,3a4.617,4.617 0 0 0 -4.611,4.611a1.5,1.5 0 0 1 -1.5,1.5z"/>
  <path id="svg_9" fill="#7bcdd1" d="m25.111,53.5a1.5,1.5 0 0 1 -1.5,-1.5l0,-29.333a1.5,1.5 0 0 1 1.5,-1.5l9.778,0a1.5,1.5 0 0 1 0,3l-8.278,0l0,27.833a1.5,1.5 0 0 1 -1.5,1.5z"/>
  <path id="svg_10" fill="#8d9cf4" d="m52,35.167a1.5,1.5 0 0 1 -1.5,-1.5a9.511,9.511 0 0 0 -9.5,-9.5a9.354,9.354 0 0 0 -5.27,1.611a1.5,1.5 0 1 1 -1.683,-2.478a12.339,12.339 0 0 1 6.953,-2.133a12.514,12.514 0 0 1 12.5,12.5a1.5,1.5 0 0 1 -1.5,1.5z"/>
 </g>
</svg>