<svg width="60" height="60" xmlns="http://www.w3.org/2000/svg">

 <g>
  <title>background</title>
  <rect fill="none" id="canvas_background" height="62" width="62" y="-1" x="-1"/>
 </g>
 <g>
  <title>Layer 1</title>
  <rect id="svg_1" width="60" rx="10" height="60" fill="none"/>
  <path stroke="#000000" stroke-opacity="0" id="svg_2" fill="none" d="m49.281,11.425l-39.976,14.992a2.01,2.01 0 0 0 -0.087,3.73l9.471,4.059l19.9,-13.268a0.5,0.5 0 0 1 0.634,0.774l-14.5,14.5l0,10.056l6.031,-6.031l9.6,8a2.01,2.01 0 0 0 3.237,-1.057l8.347,-33.38a2.011,2.011 0 0 0 -2.657,-2.375z"/>
  <path id="svg_3" fill="#8d9cf4" d="m41.634,50.207a3.493,3.493 0 0 1 -2.241,-0.816l-8.549,-7.124l-5.063,5.062a1.5,1.5 0 0 1 -2.56,-1.06l0,-10.052a1.5,1.5 0 0 1 0.439,-1.061l7.382,-7.382l-11.521,7.68a1.5,1.5 0 0 1 -1.422,0.131l-9.471,-4.059a3.51,3.51 0 0 1 0.15,-6.513l39.977,-14.992a3.511,3.511 0 0 1 4.638,4.138l-8.347,33.387a3.49,3.49 0 0 1 -2.316,2.485a3.553,3.553 0 0 1 -1.096,0.176zm-10.882,-11.47a1.5,1.5 0 0 1 0.96,0.348l9.6,8a0.506,0.506 0 0 0 0.486,0.094a0.5,0.5 0 0 0 0.337,-0.362l8.346,-33.386a0.51,0.51 0 0 0 -0.673,-0.6l0,0l-39.977,14.99a0.511,0.511 0 0 0 -0.021,0.948l8.723,3.738l19.226,-12.817a2,2 0 0 1 2.526,3.082l-14.064,14.066l0,5.809l3.47,-3.47a1.5,1.5 0 0 1 1.061,-0.44zm18.529,-27.311l0,0z"/>
  <path id="svg_4" fill="#7bcdd1" d="m9.305,27.917a1.5,1.5 0 0 1 -0.527,-2.9l39.977,-14.996a3.511,3.511 0 0 1 4.638,4.138a1.5,1.5 0 0 1 -2.911,-0.726a0.511,0.511 0 0 0 -0.673,-0.6l-39.978,14.988a1.476,1.476 0 0 1 -0.526,0.096z"/>
 </g>
</svg>