<svg xmlns="http://www.w3.org/2000/svg" version="1.1" xmlns:xlink="http://www.w3.org/1999/xlink" xmlns:svgjs="http://svgjs.dev/svgjs" width="1000" height="623" viewBox="0 0 1000 623"><g transform="matrix(1,0,0,1,-0.6060606060606233,0.2522267206477409)"><svg viewBox="0 0 396 247" data-background-color="#1f2d5a" preserveAspectRatio="xMidYMid meet" height="623" width="1000" xmlns="http://www.w3.org/2000/svg" xmlns:xlink="http://www.w3.org/1999/xlink"><g id="tight-bounds" transform="matrix(1,0,0,1,0.2400000000000091,-0.09999999999999432)"><svg viewBox="0 0 395.52 247.2" height="247.2" width="395.52"><g><svg></svg></g><g><svg viewBox="0 0 395.52 247.2" height="247.2" width="395.52"><g transform="matrix(1,0,0,1,39.55200000000002,104.25031515535825)"><svg viewBox="0 0 316.41599999999994 38.699369689283486" height="38.699369689283486" width="316.41599999999994"><g><svg viewBox="0 0 316.41599999999994 38.699369689283486" height="38.699369689283486" width="316.41599999999994"><g><svg viewBox="0 0 316.41599999999994 38.699369689283486" height="38.699369689283486" width="316.41599999999994"><g><svg viewBox="0 0 316.41599999999994 38.699369689283486" height="38.699369689283486" width="316.41599999999994"><g><rect width="115.79249166205094" height="1.8823117802771323" y="31.308583237081343" fill="#fbfbfb" data-fill-palette-color="tertiary"></rect><rect width="115.79249166205094" height="1.8823117802771323" y="31.308583237081343" x="200.623508337949" fill="#fbfbfb" data-fill-palette-color="tertiary"></rect></g><g><svg viewBox="0 0 316.41599999999994 20.87259081573975" height="20.87259081573975" width="316.41599999999994"><g transform="matrix(1,0,0,1,0,0)"><svg width="316.41599999999994" viewBox="0.5099999904632568 -38.66999816894531 594.3499755859375 39.209999084472656" height="20.87259081573975" data-palette-color="#fbfbfb"><path d="M0.51 0L18.43-38.16 26.64-38.16 45.09 0 36.96 0 33.91-6.42 11.62-6.42 8.67 0 0.51 0ZM14.58-12.79L30.86-12.79 22.61-30.13 14.58-12.79ZM50.97 0L50.97-38.16 58.71-38.16 82.49-25.71 82.49-38.16 90.23-38.16 90.23 0 82.49 0 82.49-17.5 58.71-29.88 58.71 0 50.97 0ZM101.02 0L101.02-38.16 115.01-38.16Q121.14-38.16 125.65-36.84 130.17-35.52 133.14-33.07 136.1-30.62 137.56-27.11 139.01-23.61 139.01-19.24L139.01-19.24Q139.01-15.09 137.57-11.56 136.13-8.03 133.17-5.46 130.22-2.88 125.7-1.43 121.19 0.02 115.06 0.02L115.06 0.02 101.02 0ZM108.76-6.69L116.91-6.69Q120.38-6.69 122.99-7.58 125.61-8.47 127.35-10.11 129.1-11.74 129.98-14.06 130.85-16.38 130.85-19.24L130.85-19.24Q130.85-22.05 129.98-24.3 129.1-26.56 127.35-28.14 125.61-29.71 122.99-30.57 120.38-31.42 116.91-31.42L116.91-31.42 108.76-31.42 108.76-6.69ZM146.77 0L146.77-38.16 166.18-38.16Q170.57-38.16 173.8-37.24 177.02-36.33 179.14-34.59 181.27-32.86 182.3-30.37 183.34-27.88 183.34-24.73L183.34-24.73Q183.34-22.61 182.83-20.69 182.32-18.77 181.25-17.16 180.19-15.55 178.58-14.29 176.97-13.04 174.8-12.21L174.8-12.21 183.1 0 173.63 0 166.45-10.84 166.23-10.84 154.51-10.86 154.51 0 146.77 0ZM154.51-17.55L166.37-17.55Q168.57-17.55 170.22-18.07 171.87-18.58 172.98-19.51 174.09-20.43 174.64-21.77 175.19-23.1 175.19-24.73L175.19-24.73Q175.19-27.93 172.99-29.68 170.79-31.42 166.37-31.42L166.37-31.42 154.51-31.42 154.51-17.55ZM191.52 0L191.52-38.16 199.31-38.16 199.31 0 191.52 0ZM208.19 0L208.19-38.16 215.98-38.16 215.98 0 208.19 0ZM240.12-19.31L240.12-19.31Q240.12-23.39 241.66-26.92 243.2-30.44 246.11-33.04 249.03-35.64 253.24-37.13 257.45-38.62 262.78-38.62L262.78-38.62Q267.44-38.62 271.33-37.68 275.23-36.74 278.57-34.81L278.57-34.81 275.01-28.96Q274.01-29.61 272.7-30.13 271.39-30.64 269.92-30.99 268.44-31.35 266.86-31.54 265.29-31.74 263.75-31.74L263.75-31.74Q260.04-31.74 257.14-30.82 254.23-29.91 252.24-28.26 250.25-26.61 249.21-24.33 248.18-22.05 248.18-19.31L248.18-19.31Q248.18-16.48 249.25-14.11 250.32-11.74 252.36-10.02 254.4-8.3 257.34-7.34 260.29-6.37 264-6.37L264-6.37Q265.68-6.37 267.34-6.62 269-6.86 270.55-7.29 272.1-7.71 273.54-8.31 274.98-8.91 276.23-9.62L276.23-9.62 279.79-3.76Q276.67-1.76 272.57-0.62 268.46 0.51 263.85 0.51L263.85 0.51Q257.97 0.51 253.52-1.01 249.08-2.54 246.1-5.21 243.12-7.89 241.62-11.51 240.12-15.14 240.12-19.31ZM288.29 0L288.29-38.16 296.02-38.16 296.02-28.2 319.76-28.2 319.76-38.16 327.52-38.16 327.52 0 319.76 0 319.76-21.58 296.02-21.58 296.02 0 288.29 0ZM338.36 0L338.36-38.16 370.85-38.16 370.85-31.37 346.1-31.37 346.1-23.75 368.02-23.75 368.02-17.38 346.1-17.38 346.1-6.76 371.36-6.76 371.36 0 338.36 0ZM379.96 0L379.96-38.16 399.36-38.16Q403.76-38.16 406.98-37.24 410.2-36.33 412.33-34.59 414.45-32.86 415.49-30.37 416.53-27.88 416.53-24.73L416.53-24.73Q416.53-22.61 416.02-20.69 415.5-18.77 414.44-17.16 413.38-15.55 411.77-14.29 410.16-13.04 407.98-12.21L407.98-12.21 416.28 0 406.81 0 399.63-10.84 399.41-10.84 387.69-10.86 387.69 0 379.96 0ZM387.69-17.55L399.56-17.55Q401.76-17.55 403.41-18.07 405.05-18.58 406.16-19.51 407.27-20.43 407.82-21.77 408.37-23.1 408.37-24.73L408.37-24.73Q408.37-27.93 406.18-29.68 403.98-31.42 399.56-31.42L399.56-31.42 387.69-31.42 387.69-17.55ZM437.18 0L437.18-31.37 423.09-31.37 423.09-38.16 459.01-38.16 459.01-31.37 444.92-31.37 444.92 0 437.18 0ZM467.26 0L467.26-38.16 474.99-38.16 474.99-18.41 495.14-38.16 505.05-38.16 486.25-19.95 505.05 0 494.75 0 480.68-14.55 474.99-9.06 474.99 0 467.26 0ZM506.61-19.19L506.61-19.19Q506.61-23.51 508.2-27.1 509.78-30.69 512.65-33.26 515.52-35.84 519.54-37.26 523.55-38.67 528.43-38.67L528.43-38.67Q533.29-38.67 537.32-37.26 541.35-35.84 544.22-33.26 547.09-30.69 548.67-27.1 550.26-23.51 550.26-19.19L550.26-19.19Q550.26-14.84 548.67-11.22 547.09-7.59 544.22-4.98 541.35-2.37 537.32-0.92 533.29 0.54 528.43 0.54L528.43 0.54Q523.55 0.54 519.54-0.92 515.52-2.37 512.65-4.98 509.78-7.59 508.2-11.22 506.61-14.84 506.61-19.19ZM514.35-19.19L514.35-19.19Q514.35-16.24 515.41-13.87 516.47-11.5 518.36-9.83 520.26-8.15 522.83-7.25 525.41-6.35 528.43-6.35L528.43-6.35Q531.46-6.35 534.04-7.25 536.61-8.15 538.49-9.83 540.37-11.5 541.45-13.87 542.52-16.24 542.52-19.19L542.52-19.19Q542.52-22.14 541.45-24.49 540.37-26.83 538.49-28.45 536.61-30.08 534.04-30.93 531.46-31.79 528.43-31.79L528.43-31.79Q525.41-31.79 522.83-30.93 520.26-30.08 518.36-28.45 516.47-26.83 515.41-24.49 514.35-22.14 514.35-19.19ZM570.47 0L553.75-38.16 562.32-38.16 574.31-9.06 586.29-38.16 594.86-38.16 578.14 0 570.47 0Z" opacity="1" transform="matrix(1,0,0,1,0,0)" fill="#fbfbfb" class="undefined-text-0" data-fill-palette-color="primary" id="text-0"></path></svg></g></svg></g><g transform="matrix(1,0,0,1,115.79249166205094,25.800108565156325)"><svg viewBox="0 0 84.83101667589808 12.899261124127165" height="12.899261124127165" width="84.83101667589808"><g transform="matrix(1,0,0,1,8,0)"><svg width="68.83101667589808" viewBox="2.3499999046325684 -36.400001525878906 196.87998962402344 36.900001525878906" height="12.899261124127165" data-palette-color="#fbfbfb"><path d="M11.1-36.4Q13.95-36.4 15.8-35.45L15.8-35.45 15.8-32Q14.3-32.65 13.25-32.65L13.25-32.65Q11.25-32.65 10.55-31.93 9.85-31.2 9.85-29.5L9.85-29.5 9.85-25.55 15.8-25.55 15.8-21.8 9.85-21.8 9.85 0 5.15 0 5.15-21.8 2.35-21.8 2.35-25.55 5.15-25.55 5.15-29Q5.15-36.4 11.1-36.4L11.1-36.4ZM32.55-26.05Q36.1-26.05 38.1-23.78 40.1-21.5 40.1-18.05L40.1-18.05 39.95-16.15 35.8-16.15 35.8-17.25Q35.8-18.75 35.05-19.9 34.3-21.05 33.15-21.68 32-22.3 30.85-22.3L30.85-22.3Q28.45-22.3 27.1-20.4 25.75-18.5 25.75-15.25L25.75-15.25 25.75 0 21.05 0 21.05-25.55 24.4-25.55 25.1-21.75Q25.4-22.75 26.45-23.75 27.5-24.75 29.07-25.4 30.65-26.05 32.55-26.05L32.55-26.05ZM55.75-26.05Q61.1-26.05 64.3-22.75 67.5-19.45 67.5-13.7L67.5-13.7 67.5-11.85Q67.5-6.1 64.34-2.8 61.2 0.5 55.75 0.5L55.75 0.5Q50.3 0.5 47.15-2.8 44-6.1 44-11.85L44-11.85 44-13.7Q44-19.45 47.2-22.75 50.4-26.05 55.75-26.05L55.75-26.05ZM55.75-22.3Q52.4-22.3 50.55-20 48.7-17.7 48.7-13.25L48.7-13.25 48.7-12.3Q48.7-7.95 50.52-5.6 52.35-3.25 55.75-3.25L55.75-3.25Q59.05-3.25 60.92-5.58 62.8-7.9 62.8-12.3L62.8-12.3 62.8-13.25Q62.8-17.6 60.97-19.95 59.15-22.3 55.75-22.3L55.75-22.3ZM86.84-26.05Q91.04-26.05 93.44-23.8 95.84-21.55 95.84-17.2L95.84-17.2 95.84 0 91.14 0 91.14-16.35Q91.14-22.3 85.74-22.3L85.74-22.3Q83.94-22.3 82.39-21.35 80.84-20.4 79.89-18.78 78.94-17.15 78.94-15.2L78.94-15.2 78.94 0 74.24 0 74.24-25.55 77.64-25.55 78.29-21.8Q81.49-26.05 86.84-26.05L86.84-26.05ZM109.14-33.7L109.14-25.55 115.09-25.55 115.09-21.8 109.14-21.8 109.14-6.55Q109.14-4.75 109.84-3.95 110.54-3.15 111.99-3.15L111.99-3.15Q113.29-3.15 115.09-3.9L115.09-3.9 115.09-0.4Q113.29 0.5 110.44 0.5L110.44 0.5Q107.49 0.5 105.97-1.25 104.44-3 104.44-6.8L104.44-6.8 104.44-21.8 101.64-21.8 101.64-25.55 104.59-25.55 106.19-33.7 109.14-33.7ZM131.19-26.05Q134.34-26.05 136.76-24.73 139.19-23.4 140.54-20.95 141.89-18.5 141.89-15.25L141.89-15.25 141.89-11.7 124.04-11.7Q124.14-7.65 125.94-5.45 127.74-3.25 131.29-3.25L131.29-3.25Q134.44-3.25 135.94-5.1 137.44-6.95 137.44-9.5L137.44-9.5 141.89-9.5Q141.89-6.5 140.51-4.25 139.14-2 136.71-0.75 134.29 0.5 131.19 0.5L131.19 0.5 130.99 0.5Q125.59 0.5 122.46-2.98 119.34-6.45 119.34-12.25L119.34-12.25 119.34-13.25Q119.34-17.05 120.74-19.95 122.14-22.85 124.74-24.45 127.34-26.05 130.84-26.05L130.84-26.05 131.19-26.05ZM130.94-22.3Q128.09-22.3 126.31-20.55 124.54-18.8 124.14-15.35L124.14-15.35 137.24-15.35 137.24-15.95Q137.24-18.8 135.51-20.55 133.79-22.3 130.94-22.3L130.94-22.3ZM161.34-26.05Q165.54-26.05 167.94-23.8 170.34-21.55 170.34-17.2L170.34-17.2 170.34 0 165.64 0 165.64-16.35Q165.64-22.3 160.24-22.3L160.24-22.3Q158.44-22.3 156.89-21.35 155.34-20.4 154.39-18.78 153.44-17.15 153.44-15.2L153.44-15.2 153.44 0 148.74 0 148.74-25.55 152.14-25.55 152.78-21.8Q155.99-26.05 161.34-26.05L161.34-26.05ZM199.23-36L199.23 0 195.73 0Q195.38-1.6 195.08-3.5L195.08-3.5Q192.23 0.5 187.18 0.5L187.18 0.5Q182.38 0.5 179.61-3.05 176.83-6.6 176.83-12.8L176.83-12.8 176.83-13.35Q176.83-19.2 179.56-22.63 182.28-26.05 187.18-26.05L187.18-26.05Q191.93-26.05 194.53-22.3L194.53-22.3 194.53-36 199.23-36ZM188.03-22.3Q184.68-22.3 183.11-19.98 181.53-17.65 181.53-12.75L181.53-12.75Q181.53-7.85 183.13-5.55 184.73-3.25 188.03-3.25L188.03-3.25Q194.58-3.25 194.58-12.75L194.58-12.75Q194.58-17.65 192.93-19.98 191.28-22.3 188.03-22.3L188.03-22.3Z" opacity="1" transform="matrix(1,0,0,1,0,0)" fill="#fbfbfb" class="undefined-text-1" data-fill-palette-color="secondary" id="text-1"></path></svg></g></svg></g></svg></g></svg></g><g></g></svg></g></svg></g><g mask="url(#c31c68d8-5b84-412c-bd85-286520795863)"><g transform="matrix(1.915625, 0, 0, 1.915625, 75.16, 1)"><svg xmlns="http://www.w3.org/2000/svg" data-name="Layer 1" viewBox="0 0 128 128" x="0" y="0" height="128" width="128" class="icon-none" data-fill-palette-color="accent" id="none"><path d="M18.136 82.998c-4.542 11.393-4.679 20.969 0.609 26.257 2.711 2.711 6.544 3.998 11.174 3.998a41.839 41.839 0 0 0 15.084-3.387C49.847 121.133 56.521 128 64 128s14.153-6.867 18.997-18.135a41.841 41.841 0 0 0 15.084 3.387c4.628 0 8.464-1.287 11.174-3.997 5.288-5.288 5.151-14.864 0.609-26.257C121.132 78.154 128 71.479 128 64s-6.868-14.154-18.136-18.998c4.542-11.393 4.679-20.969-0.609-26.257C103.966 13.457 94.39 13.593 82.998 18.135 78.154 6.868 71.479 0 64 0 56.521 0 49.846 6.868 45.002 18.136c-11.392-4.542-20.968-4.679-26.257 0.609-5.288 5.288-5.151 14.864-0.609 26.257C6.868 49.846 0 56.521 0 64S6.868 78.154 18.136 82.998Zm3.437 23.429c-4.121-4.121-3.695-12.19 0.274-21.963a100.747 100.747 0 0 0 17.21 4.479A100.75 100.75 0 0 0 43.535 106.153C33.763 110.121 25.696 110.546 21.573 106.427Zm15.493-38.063Q35.315 66.18 33.71 64q1.604-2.179 3.356-4.364C37.027 61.078 37 62.53 37 64S37.027 66.922 37.066 68.364Zm-5.816-7.814a98.957 98.957 0 0 1-7.776-13.336A98.959 98.959 0 0 1 38.402 43.282q-0.656 4.687-1.012 9.696Q34.103 56.764 31.25 60.55ZM37.39 75.022q0.352 5.001 1.012 9.696a98.959 98.959 0 0 1-14.928-3.932 98.957 98.957 0 0 1 7.776-13.336Q34.1 71.228 37.39 75.022ZM47.736 47.736q3.382-3.382 6.856-6.436Q59.203 41.007 64 41q4.789 0 9.408 0.3 3.463 3.051 6.856 6.436 3.384 3.384 6.437 6.861Q86.993 59.206 87 64q0 4.786-0.299 9.403-3.052 3.465-6.437 6.861-3.384 3.384-6.861 6.437Q68.794 86.993 64 87q-4.786 0-9.403-0.299-3.465-3.052-6.861-6.437-3.384-3.384-6.437-6.861Q41.007 68.794 41 64q0-4.786 0.299-9.403Q44.352 51.131 47.736 47.736Zm-5.867 0.305q0.306-2.783 0.713-5.459 2.675-0.406 5.459-0.713c-1.048 0.992-2.093 1.999-3.133 3.039S42.862 46.993 41.869 48.041ZM59.625 37.067q2.189-1.756 4.375-3.361 2.184 1.608 4.375 3.361C66.929 37.027 65.474 37 64 37S61.071 37.027 59.625 37.067ZM79.959 41.869q2.783 0.306 5.459 0.713 0.406 2.675 0.713 5.459c-0.992-1.048-2-2.093-3.039-3.133S81.007 42.862 79.959 41.869Zm6.172 38.09q-0.306 2.783-0.713 5.459-2.672 0.406-5.453 0.712 1.569-1.486 3.127-3.038C84.131 82.052 85.138 81.007 86.131 79.959ZM68.364 90.934q-2.184 1.752-4.364 3.357-2.179-1.604-4.365-3.357C61.078 90.973 62.53 91 64 91S66.922 90.973 68.364 90.934ZM48.035 86.13q-2.78-0.306-5.453-0.712-0.406-2.675-0.713-5.459c0.992 1.048 2 2.093 3.039 3.133Q46.465 84.648 48.035 86.13Zm-4.753 3.468q4.685 0.655 9.691 1.012 3.786 3.288 7.573 6.143a98.939 98.939 0 0 1-13.332 7.773A98.957 98.957 0 0 1 43.282 89.598ZM64 124c-5.827 0-11.23-6.004-15.334-15.718a100.87 100.87 0 0 0 15.334-9.011 100.857 100.857 0 0 0 15.335 9.01C75.231 117.996 69.827 124 64 124Zm16.786-19.473A98.95 98.95 0 0 1 67.454 96.753q3.778-2.851 7.574-6.143 4.998-0.352 9.69-1.012A98.956 98.956 0 0 1 80.786 104.527Zm25.641 1.9c-4.121 4.122-12.19 3.696-21.963-0.273a100.752 100.752 0 0 0 4.479-17.211 100.747 100.747 0 0 0 17.21-4.479C110.122 94.237 110.547 102.306 106.427 106.427ZM90.934 59.636Q92.685 61.82 94.29 64q-1.604 2.179-3.356 4.364C90.973 66.922 91 65.47 91 64S90.973 61.078 90.934 59.636ZM90.61 52.978q-0.352-5.001-1.012-9.696a98.959 98.959 0 0 1 14.928 3.932 98.957 98.957 0 0 1-7.776 13.336Q93.9 56.772 90.61 52.978Zm0 22.044q3.287-3.785 6.14-7.572a98.957 98.957 0 0 1 7.776 13.336A98.959 98.959 0 0 1 89.598 84.718Q90.254 80.031 90.61 75.022ZM124 64c0 5.828-6.006 11.232-15.723 15.336A100.743 100.743 0 0 0 99.274 64 100.743 100.743 0 0 0 108.277 48.664C117.994 52.768 124 58.172 124 64ZM98.044 18.67c3.534 0 6.41 0.932 8.383 2.903 4.121 4.121 3.695 12.19-0.273 21.963a100.747 100.747 0 0 0-17.211-4.479 100.75 100.75 0 0 0-4.479-17.211A37.466 37.466 0 0 1 98.044 18.67ZM84.718 38.402q-4.687-0.656-9.696-1.012-3.784-3.286-7.569-6.138a99.022 99.022 0 0 1 13.333-7.779A98.949 98.949 0 0 1 84.718 38.402ZM64 4c5.828 0 11.232 6.006 15.336 15.722a100.746 100.746 0 0 0-15.337 9.004A100.755 100.755 0 0 0 48.664 19.723C52.768 10.006 58.172 4 64 4ZM47.214 23.474a99.029 99.029 0 0 1 13.333 7.778q-3.777 2.85-7.569 6.138-5.001 0.352-9.696 1.012A98.954 98.954 0 0 1 47.214 23.474ZM21.573 21.573c1.973-1.973 4.848-2.903 8.383-2.903a37.465 37.465 0 0 1 13.58 3.176 100.749 100.749 0 0 0-4.479 17.211A100.747 100.747 0 0 0 21.846 43.536C17.878 33.763 17.453 25.694 21.573 21.573ZM19.723 48.664A100.743 100.743 0 0 0 28.726 64 100.743 100.743 0 0 0 19.723 79.336C10.006 75.232 4 69.828 4 64S10.006 52.768 19.723 48.664Z" fill="#2f76db" data-fill-palette-color="accent"></path><path d="M64 81A17 17 0 1 0 47 64 17.019 17.019 0 0 0 64 81Zm0-30A13 13 0 1 1 51 64 13.015 13.015 0 0 1 64 51Z" fill="#2f76db" data-fill-palette-color="accent"></path><path d="M64 72a8 8 0 1 0-8-8A8.009 8.009 0 0 0 64 72Zm0-12a4 4 0 1 1-4 4A4.004 4.004 0 0 1 64 60Z" fill="#2f76db" data-fill-palette-color="accent"></path></svg></g></g></svg></g><defs><mask id="1ddb70f7-f3b3-4e71-8595-b62fd91198f8"><rect width="640" height="400" fill="white"></rect><rect width="348.0576" height="48.55440518811664" fill="black" x="145.9712" y="175.7227974059417" id="transform-me" transform="matrix(1,0,0,1,-122.24000000000001,-76.4)"></rect></mask><mask id="bfd4645a-dcd1-4c40-8100-0ce4504ae383"><rect width="640" height="400" fill="white"></rect><rect width="348.0576" height="48.55440518811664" fill="black" x="145.9712" y="175.7227974059417" id="transform-me" transform="matrix(1,0,0,1,-122.24000000000001,-76.4)"></rect></mask><mask id="c31c68d8-5b84-412c-bd85-286520795863"><rect width="640" height="400" fill="white"></rect><rect width="348.0576" height="48.55440518811664" fill="black" x="145.9712" y="175.7227974059417" id="transform-me" transform="matrix(1,0,0,1,-122.24000000000001,-76.4)"></rect></mask></defs></svg><rect width="395.52" height="247.2" fill="none" stroke="none" visibility="hidden"></rect></g></svg></g></svg>